<?xml version="1.0" encoding="UTF-8" standalone="no"?>
<svg width="200px" height="200px" viewBox="0 0 200 200" version="1.1" xmlns="http://www.w3.org/2000/svg" xmlns:xlink="http://www.w3.org/1999/xlink" xmlns:sketch="http://www.bohemiancoding.com/sketch/ns">
    <!-- Generator: Sketch 3.3.2 (12043) - http://www.bohemiancoding.com/sketch -->
    <title>flash</title>
    <desc>Created with Sketch.</desc>
    <defs></defs>
    <g id="New-Icons" stroke="none" stroke-width="1" fill="none" fill-rule="evenodd" sketch:type="MSPage">
        <g id="flash" sketch:type="MSArtboardGroup" stroke="#FFB72C" stroke-width="10">
            <path d="M146.590602,88.3631658 C144.895996,85.1657213 141.338496,83.3302238 136.822155,83.3302238 L112.436259,83.3302238 L112.436259,39.4309151 C112.436259,33.0008033 109.85717,30.8678691 107.685099,30.2182047 C105.540424,29.572454 102.221657,29.8933725 98.6798117,35.1924422 L83.1896215,58.192909 C80.6614095,61.9695724 76.9865008,67.3508285 73.7655745,72.0589383 L54.8078985,99.5092148 C51.3638946,104.561725 52.3775276,108.201411 53.2854923,109.919499 C54.2169388,111.684551 56.7451507,114.647177 63.1635216,114.647177 L88.9505007,114.647177 L88.9505007,160.632457 C88.9505007,162.565795 88.9505007,168.451911 93.3690011,169.790376 C93.893429,169.950835 94.4022023,170.025194 94.8914074,170.025194 C98.4958706,170.025194 101.098442,166.135035 102.065111,164.686988 L116.835191,141.61999 L117.829256,140.13672 C121.437633,134.739809 126.642775,126.959491 129.965456,122.083095 L145.189519,99.5248693 C147.796003,95.6816741 148.30869,91.619315 146.590602,88.3631658 L146.590602,88.3631658 Z" id="Lightening" sketch:type="MSShapeGroup"></path>
        </g>
    </g>
</svg>