<?xml version="1.0" encoding="UTF-8" standalone="no"?>
<svg width="200px" height="200px" viewBox="0 0 200 200" version="1.1" xmlns="http://www.w3.org/2000/svg" xmlns:xlink="http://www.w3.org/1999/xlink" xmlns:sketch="http://www.bohemiancoding.com/sketch/ns">
    <!-- Generator: Sketch 3.3.2 (12043) - http://www.bohemiancoding.com/sketch -->
    <title>smite</title>
    <desc>Created with Sketch.</desc>
    <defs></defs>
    <g id="New-Icons" stroke="none" stroke-width="1" fill="none" fill-rule="evenodd" sketch:type="MSPage">
        <g id="smite" sketch:type="MSArtboardGroup" stroke="#CB6412" stroke-width="10">
            <path d="M138.611897,84.4708996 C137.201729,80.1285506 134.241355,77.635819 130.483079,77.635819 L110.190345,77.635819 L110.190345,18.0175451 C110.190345,9.28501202 108.044155,6.38834096 106.236665,5.50605216 C104.451973,4.62907836 101.690259,5.06490776 98.742911,12.261408 L85.8527422,43.4976204 C83.7488895,48.6265885 80.6908126,55.9347035 78.0105173,62.3286398 L62.2348787,99.607999 C59.3689493,106.469655 60.2124444,111.412598 60.9680076,113.74588 C61.7431112,116.142942 63.8469639,120.166391 69.1880142,120.166391 L90.6466605,120.166391 L90.6466605,182.617556 C90.6466605,185.243162 90.6466605,193.236912 94.3235177,195.054639 C94.7599205,195.272554 95.1832965,195.373539 95.5903887,195.373539 C98.5898444,195.373539 100.755575,190.090436 101.559989,188.123889 L113.850918,156.797321 L114.67813,154.782939 C117.680842,147.453564 122.012304,136.887358 124.777274,130.264877 L137.445985,99.629259 C139.614972,94.4099361 140.041605,88.8929736 138.611897,84.4708996 L138.611897,84.4708996 Z" id="Lightening" sketch:type="MSShapeGroup" transform="translate(99.841506, 100.274519) rotate(-320.000000) translate(-99.841506, -100.274519) "></path>
        </g>
    </g>
</svg>