<?xml version="1.0" encoding="UTF-8" standalone="no"?>
<svg width="200px" height="200px" viewBox="0 0 200 200" version="1.1" xmlns="http://www.w3.org/2000/svg" xmlns:xlink="http://www.w3.org/1999/xlink" xmlns:sketch="http://www.bohemiancoding.com/sketch/ns">
    <!-- Generator: Sketch 3.3.2 (12043) - http://www.bohemiancoding.com/sketch -->
    <title>Teleport</title>
    <desc>Created with Sketch.</desc>
    <defs></defs>
    <g id="Icons" stroke="none" stroke-width="1" fill="none" fill-rule="evenodd" sketch:type="MSPage">
        <g id="Teleport" sketch:type="MSArtboardGroup" stroke="#9B9B9B" stroke-linecap="round" stroke-linejoin="round">
            <path d="M40,170 L160,170" id="Line" stroke-width="20" sketch:type="MSShapeGroup"></path>
            <path d="M100,160 C100,160 70,152.6607 70,131.009766 C70,109.358831 100,102.019531 100,102.019531" id="Line" stroke-width="20" sketch:type="MSShapeGroup"></path>
            <path d="M100,160 C100,160 130,152.6607 130,131.009766 C130,109.358831 100,102.019531 100,102.019531" id="Line-Copy" stroke-width="20" sketch:type="MSShapeGroup"></path>
            <path d="M100,100.019531 C100,100.019531 70,92.1081388 70,68.7695312 C70,45.4309237 100,37.5195312 100,37.5195312" id="Line-Copy-3" stroke-width="15" sketch:type="MSShapeGroup"></path>
            <path d="M100,100.019531 C100,100.019531 130,92.1081388 130,68.7695312 C130,45.4309237 100,37.5195312 100,37.5195312" id="Line-Copy-2" stroke-width="15" sketch:type="MSShapeGroup"></path>
        </g>
    </g>
</svg>